<?xml version="1.0" encoding="UTF-8"?>
<svg id="Layer_1" xmlns="http://www.w3.org/2000/svg" width="10in" height="10in" version="1.1" viewBox="0 0 720 720">
  <!-- Generator: Adobe Illustrator 30.4.0, SVG Export Plug-In . SVG Version: 2.1.4 Build 226)  -->
  <defs>
    <style>
      .st0 {
        fill: #231f20;
      }
    </style>
  </defs>
  <path class="st0" d="M416.573,322.345c-2.527-1.97-5.504-3.511-8.928-4.625-3.426-1.112-7.065-1.67-10.919-1.67v.003l-100.586-.129v3.469c4.709,0,8.778,1.094,12.204,3.282,3.425,2.188,6.379,5.082,8.864,8.683v58.286c-2.485,3.517-5.44,6.391-8.864,8.621-3.426,2.23-7.495,3.344-12.204,3.344v3.468h97.4v-3.468c-4.797,0-8.886-1.112-12.268-3.34-3.384-2.226-19.317-5.094-21.8-8.607v-25.436h37.254c3.853,0,7.492-.578,10.919-1.734,3.425-1.157,6.401-2.698,8.928-4.625,2.525-1.928,4.538-4.196,6.038-6.809,1.497-2.612,2.248-5.416,2.248-8.415v-5.01c0-2.998-.751-5.801-2.248-8.415-1.499-2.612-3.513-4.902-6.038-6.873ZM379.128,346.61c-.857,2.027-2.055,3.817-3.597,5.371-1.542,1.554-3.321,2.762-5.332,3.625-2.013.863-4.175,1.295-6.487,1.295l-4.239.128v-33.786h4.239c2.312,0,4.474.431,6.487,1.294,2.012.863,3.79,2.071,5.332,3.625,1.542,1.554,2.74,3.347,3.597,5.374.855,2.028,1.285,4.206,1.285,6.536s-.43,4.511-1.285,6.538Z"/>
</svg>