<?xml version="1.0" encoding="UTF-8"?>
<svg id="Layer_1" xmlns="http://www.w3.org/2000/svg" width="10in" height="10in" version="1.1" viewBox="0 0 720 720">
  <!-- Generator: Adobe Illustrator 30.4.0, SVG Export Plug-In . SVG Version: 2.1.4 Build 226)  -->
  <defs>
    <style>
      .st0 {
        fill: #231f20;
      }
    </style>
  </defs>
  <path class="st0" d="M185.586,254.25c3.854,0,7.493.558,10.919,1.67,3.424,1.114,6.401,2.655,8.928,4.625,2.525,1.971,4.539,4.261,6.038,6.873,1.497,2.614,2.248,5.417,2.248,8.415v5.01c0,2.999-.751,5.803-2.248,8.415-1.5,2.613-3.513,4.881-6.038,6.809-2.527,1.927-5.503,3.468-8.928,4.625-3.427,1.156-7.066,1.734-10.919,1.734h-37.254v25.436c2.483,3.513,18.416,6.381,21.8,8.607,3.382,2.228,7.471,3.34,12.268,3.34v3.468h-97.4v-3.468c4.709,0,8.778-1.114,12.204-3.344,3.424-2.23,6.379-5.104,8.864-8.621v-58.286c-2.485-3.601-5.439-6.495-8.864-8.683-3.426-2.188-7.495-3.282-12.204-3.282v-3.469l100.586.129ZM148.332,261.443v33.786l4.239-.128c2.312,0,4.474-.432,6.487-1.295,2.011-.863,3.79-2.071,5.332-3.625s2.74-3.344,3.597-5.371c.855-2.027,1.285-4.208,1.285-6.538s-.43-4.508-1.285-6.536c-.857-2.027-2.055-3.82-3.597-5.374s-3.32-2.762-5.332-3.625c-2.013-.863-4.175-1.294-6.487-1.294h-4.239Z"/>
  <path class="st0" d="M268.738,254.25c7.535,0,14.601,1.156,21.196,3.468,6.594,2.312,12.353,5.482,17.278,9.506,4.924,4.026,8.82,8.735,11.69,14.131,2.869,5.396,4.304,11.176,4.304,17.342,0,7.11-1.67,13.447-5.01,19.013-3.34,5.568-7.644,10.235-12.911,14.002-5.267,3.77-11.134,6.638-17.599,8.607-6.467,1.971-12.782,2.955-18.948,2.955-6.252,0-12.611-.983-19.077-2.955-6.467-1.969-12.333-4.837-17.6-8.607-5.267-3.768-9.57-8.435-12.91-14.002-3.34-5.566-5.01-11.903-5.01-19.013,0-6.166,1.433-11.947,4.304-17.342,2.868-5.396,6.764-10.104,11.69-14.131,4.924-4.024,10.705-7.194,17.342-9.506,6.636-2.312,13.724-3.468,21.261-3.468ZM279.786,326.445v-55.367c0-3.083-1.156-5.416-3.469-7.001-2.312-1.583-4.861-2.376-7.644-2.376s-5.331.793-7.644,2.376c-2.312,1.586-3.468,3.918-3.468,7.001v55.367c0,2.055.556,3.77,1.67,5.139,1.112,1.371,2.483,2.398,4.111,3.083,1.626.687,3.404,1.028,5.331,1.028s3.704-.341,5.332-1.028c1.625-.685,2.997-1.712,4.111-3.083,1.112-1.369,1.67-3.083,1.67-5.139Z"/>
  <path class="st0" d="M400.605,254.121v3.469c-4.797,0-8.887,1.094-12.268,3.282-3.385,2.188-6.316,5.083-8.801,8.683v58.286c2.484,3.517,5.416,6.391,8.801,8.621,3.381,2.23,7.471,3.344,12.268,3.344v3.468h-84.4v-3.468c4.709,0,8.778-1.114,12.204-3.344,3.424-2.23,6.379-5.104,8.864-8.621v-58.286c-2.485-3.601-5.439-6.495-8.864-8.683-3.426-2.188-7.495-3.282-12.204-3.282v-3.469h84.4Z"/>
  <path class="st0" d="M405.982,343.274v-24.793h3.083c0,2.142.47,4.197,1.413,6.167.941,1.971,2.184,3.705,3.725,5.203,1.542,1.5,3.318,2.698,5.332,3.597,2.011.899,4.131,1.349,6.358,1.349h29.032c2.397,0,4.24-.855,5.524-2.569,1.284-1.712,1.969-3.617,2.056-5.716.084-2.098-.494-4.067-1.734-5.91-1.242-1.84-3.191-2.933-5.846-3.275l-29.675-3.726c-3.597-.428-6.788-1.562-9.57-3.404-2.784-1.841-5.118-4.111-7.001-6.809-1.885-2.698-3.298-5.737-4.239-9.121-.943-3.382-1.413-6.829-1.413-10.341,0-4.111.771-7.965,2.312-11.562,1.541-3.597,3.661-6.744,6.358-9.442,2.698-2.698,5.846-4.817,9.442-6.359s7.451-2.312,11.562-2.312h63.846v24.793h-3.083c0-2.055-.472-4.066-1.413-6.038-.943-1.969-2.184-3.726-3.726-5.267-1.541-1.542-3.319-2.762-5.331-3.661-2.013-.899-4.133-1.349-6.358-1.349h-29.033c-2.398,0-4.239.877-5.523,2.629-1.285,1.754-1.971,3.677-2.056,5.772-.086,2.096.47,4.083,1.67,5.964,1.198,1.88,3.168,2.948,5.909,3.206l26.849,2.693c3.854.428,7.6,1.305,11.241,2.629,3.639,1.325,6.851,3.25,9.635,5.771,2.781,2.523,5.029,5.622,6.744,9.299,1.712,3.677,2.569,7.995,2.569,12.955,0,4.275-.943,8.229-2.826,11.862-1.885,3.635-4.433,6.756-7.644,9.364-3.212,2.609-6.917,4.661-11.112,6.156-4.197,1.498-8.607,2.244-13.231,2.244h-63.846Z"/>
  <path class="st0" d="M500.641,343.274v-3.468c4.709,0,8.777-1.114,12.204-3.344,3.424-2.23,6.379-5.104,8.864-8.621v-58.286c-2.485-3.601-5.44-6.495-8.864-8.683-3.427-2.188-7.495-3.282-12.204-3.282v-3.469h108.937v40.98h-3.597c0-3.938-.515-7.535-1.542-10.791-1.027-3.254-2.485-6.208-4.368-8.864-1.885-2.654-4.133-5.03-6.744-7.13-2.613-2.098-5.504-4.002-8.671-5.717h-12.59c-1.541,1.028-2.977,2.036-4.303,3.019-1.329.986-2.592,2.334-3.79,4.047v26.849l16.187-15.801v35.97l-16.187-15.801v26.977c1.198,1.628,2.461,2.935,3.79,3.918,1.326.986,2.762,1.991,4.303,3.019h12.59c3.167-1.626,6.058-3.511,8.671-5.652,2.611-2.14,4.859-4.516,6.744-7.13,1.883-2.611,3.341-5.544,4.368-8.799,1.027-3.254,1.542-6.851,1.542-10.791h3.597v40.851h-108.937Z"/>
</svg>