<?xml version="1.0" encoding="UTF-8"?>
<svg id="Layer_1" xmlns="http://www.w3.org/2000/svg" width="10in" height="10in" version="1.1" viewBox="0 0 720 720">
  <!-- Generator: Adobe Illustrator 30.4.0, SVG Export Plug-In . SVG Version: 2.1.4 Build 226)  -->
  <defs>
    <style>
      .st0 {
        fill: #231f20;
      }
    </style>
  </defs>
  <path class="st0" d="M195.433,260.545c-2.527-1.97-5.504-3.511-8.928-4.625-3.426-1.112-7.065-1.67-10.919-1.67v.003l-100.586-.129v3.469c4.709,0,8.778,1.094,12.204,3.282,3.425,2.188,6.379,5.082,8.864,8.683v58.286c-2.485,3.517-5.44,6.391-8.864,8.621-3.426,2.23-7.495,3.344-12.204,3.344v3.468h97.4v-3.468c-4.797,0-8.886-1.112-12.268-3.34-3.384-2.226-19.317-5.094-21.8-8.607v-25.436h37.254c3.853,0,7.492-.578,10.919-1.734,3.425-1.157,6.401-2.698,8.928-4.625,2.525-1.928,4.538-4.196,6.038-6.809,1.497-2.612,2.248-5.416,2.248-8.415v-5.01c0-2.998-.751-5.801-2.248-8.415-1.499-2.612-3.513-4.902-6.038-6.873ZM157.987,284.81c-.857,2.027-2.055,3.817-3.597,5.371-1.542,1.554-3.321,2.762-5.332,3.625-2.013.863-4.175,1.295-6.487,1.295l-4.239.128v-33.786h4.239c2.312,0,4.474.431,6.487,1.294,2.012.863,3.79,2.071,5.332,3.625,1.542,1.554,2.74,3.347,3.597,5.374.855,2.028,1.285,4.206,1.285,6.536s-.43,4.511-1.285,6.538Z"/>
  <path class="st0" d="M314.205,284.59c4.709,0,8.778,1.094,12.204,3.282,3.425,2.188,6.379,5.082,8.864,8.683v31.286c-2.485,3.517-5.44,6.391-8.864,8.621-3.426,2.23-7.495,3.344-12.204,3.344v3.468h84.4v-3.468c-4.797,0-8.887-1.114-12.268-3.344-3.385-2.23-6.317-5.104-8.801-8.621v-31.286c2.485-3.6,5.416-6.495,8.801-8.683,3.381-2.188,7.471-3.282,12.268-3.282v-3.469h-84.4v3.469Z"/>
  <path class="st0" d="M504.641,313.647c0-4.96-.857-9.278-2.569-12.955-1.715-3.677-3.963-6.776-6.744-9.299-2.784-2.521-5.996-4.446-9.635-5.771-3.641-1.324-7.387-2.201-11.241-2.629l-26.849-2.693c-2.741-.258-4.711-1.326-5.909-3.206-1.2-1.881-1.756-3.868-1.67-5.964.085-2.095.771-4.018,2.056-5.772,1.284-1.752,3.125-2.629,5.523-2.629h29.033c2.225,0,4.345.45,6.358,1.349,2.012.899,3.79,2.119,5.331,3.661,1.542,1.541,2.783,3.298,3.726,5.267.941,1.972,1.413,3.983,1.413,6.038h3.083v-24.793h-63.846c-4.111,0-7.966.77-11.562,2.312-3.596,1.542-6.744,3.661-9.442,6.359-1.298,1.298-2.454,2.706-3.484,4.212l-28.885-18.487c.198-1.227.305-2.485.305-3.768,0-12.953-10.501-23.454-23.454-23.454s-23.454,10.501-23.454,23.454c0,1.406.131,2.78.368,4.118l-32.791,20.987c-.983-.951-2.006-1.874-3.088-2.759-4.925-4.024-10.684-7.194-17.278-9.506-6.595-2.312-13.661-3.468-21.196-3.468s-14.625,1.156-21.261,3.468c-6.637,2.312-12.418,5.482-17.342,9.506-4.926,4.027-8.822,8.735-11.69,14.131-2.871,5.395-4.304,11.176-4.304,17.342,0,7.11,1.67,13.447,5.01,19.013,3.34,5.567,7.643,10.234,12.91,14.002,5.267,3.77,11.133,6.638,17.6,8.607,6.466,1.972,12.825,2.955,19.077,2.955,6.166,0,12.481-.984,18.948-2.955,6.465-1.969,12.332-4.837,17.599-8.607,5.267-3.767,9.571-8.434,12.911-14.002,3.34-5.566,5.01-11.903,5.01-19.013,0-6.166-1.435-11.946-4.304-17.342-.348-.654-.712-1.297-1.091-1.932l30.41-19.462c4.302,5.117,10.748,8.372,17.957,8.372,7.328,0,13.869-3.362,18.17-8.626l29.182,18.677c-.33,1.793-.503,3.638-.503,5.542,0,3.512.47,6.959,1.413,10.341.941,3.384,2.354,6.423,4.239,9.121,1.883,2.698,4.217,4.968,7.001,6.809,2.782,1.842,5.973,2.976,9.57,3.404l29.675,3.726c2.655.342,4.604,1.435,5.846,3.275,1.24,1.843,1.818,3.812,1.734,5.91-.087,2.099-.772,4.004-2.056,5.716-1.284,1.714-3.127,2.569-5.524,2.569h-29.032c-2.227,0-4.347-.45-6.358-1.349-2.014-.899-3.79-2.097-5.332-3.597-1.541-1.498-2.784-3.232-3.725-5.203-.943-1.97-1.413-4.025-1.413-6.167h-3.083v24.792h63.846c4.624,0,9.034-.746,13.231-2.244,4.195-1.495,7.9-3.547,11.112-6.156,3.211-2.608,5.759-5.729,7.644-9.364,1.883-3.633,2.826-7.587,2.826-11.862ZM269.786,326.445c0,2.056-.558,3.77-1.67,5.139-1.114,1.371-2.486,2.398-4.111,3.083-1.628.687-3.405,1.028-5.332,1.028s-3.705-.341-5.331-1.028c-1.628-.685-2.999-1.712-4.111-3.083-1.114-1.369-1.67-3.084-1.67-5.139v-55.367c0-3.083,1.156-5.415,3.468-7.001,2.313-1.583,4.861-2.376,7.644-2.376s5.332.793,7.644,2.376c2.313,1.585,3.469,3.918,3.469,7.001v55.367Z"/>
  <path class="st0" d="M567.763,265.618c1.326-.983,2.762-1.991,4.303-3.019h12.59c3.167,1.715,6.058,3.619,8.671,5.717,2.611,2.1,4.859,4.476,6.744,7.13,1.883,2.656,3.341,5.61,4.368,8.864,1.027,3.256,1.542,6.853,1.542,10.791h3.597v-40.98h-108.937v3.469c4.709,0,8.777,1.094,12.204,3.282,3.424,2.188,6.379,5.082,8.864,8.683v58.286c-2.485,3.517-5.44,6.391-8.864,8.621-3.427,2.23-7.495,3.344-12.204,3.344v3.468h0s108.937,0,108.937,0v-40.851h-3.597c0,3.94-.515,7.537-1.542,10.791-1.027,3.255-2.485,6.188-4.368,8.799-1.885,2.614-4.133,4.99-6.744,7.13-2.613,2.141-5.504,4.026-8.671,5.652h-12.59c-1.541-1.028-2.977-2.033-4.303-3.019-1.329-.983-2.592-2.29-3.79-3.918v-26.977l16.187,15.801v-35.97l-16.187,15.801v-26.849c1.198-1.713,2.461-3.061,3.79-4.047Z"/>
</svg>